<svg width="97" height="96" viewBox="0 0 97 96" fill="none" xmlns="http://www.w3.org/2000/svg">
<circle cx="48.6667" cy="48" r="48" fill="#FFECE2"/>
<rect x="25" y="24" width="7.63636" height="49.0909" rx="2" fill="#FFC8C8"/>
<rect x="38.0909" y="24" width="34.9091" height="49.0909" rx="2" fill="#FFC8C8"/>
<mask id="mask0_744_367" style="mask-type:alpha" maskUnits="userSpaceOnUse" x="38" y="24" width="35" height="50">
<rect x="38.0909" y="24" width="34.9091" height="49.0909" rx="2" fill="#FEBBCF"/>
</mask>
<g mask="url(#mask0_744_367)">
<path d="M85.554 9.11093L76.6221 52.5798L43.4429 23.1101L85.554 9.11093Z" fill="#FFB8B8"/>
</g>
<path d="M65.3637 30.5455C64.785 30.5455 64.2301 30.761 63.8209 31.1446C63.4117 31.5282 63.1819 32.0485 63.1819 32.5909L63.1819 35.6591C63.1819 37.5578 62.3773 39.3788 60.9452 40.7214C59.5131 42.064 57.5708 42.8182 55.5455 42.8182C53.5202 42.8182 51.5779 42.0639 50.1458 40.7214C48.7137 39.3788 47.9091 37.5578 47.9091 35.6591L47.9091 32.5909C47.9091 32.0484 47.6793 31.5282 47.2701 31.1446C46.8609 30.761 46.306 30.5455 45.7273 30.5455C45.1487 30.5455 44.5937 30.761 44.1845 31.1446C43.7754 31.5282 43.5455 32.0484 43.5455 32.5909L43.5455 35.6591C43.5455 38.6428 44.8098 41.5043 47.0602 43.6141C49.3106 45.7239 52.3629 46.9091 55.5455 46.9091C58.7281 46.9091 61.7803 45.7239 64.0308 43.6141C66.2812 41.5043 67.5455 38.6428 67.5455 35.6591L67.5455 32.5909C67.5455 32.0485 67.3156 31.5282 66.9064 31.1446C66.4973 30.761 65.9423 30.5455 65.3637 30.5455Z" fill="#FF3A3A"/>
</svg>
