<svg width="96" height="96" viewBox="0 0 96 96" fill="none" xmlns="http://www.w3.org/2000/svg">
<circle cx="48" cy="48" r="48" fill="#FFECE2"/>
<circle cx="54.1765" cy="41.2312" r="18.8235" fill="#FFC8C8"/>
<path d="M52.5186 32.6194C52.5372 31.6874 53.3132 30.9329 54.2298 31.1025C56.3451 31.494 58.3012 32.5382 59.811 34.1095C61.7134 36.0894 62.7514 38.744 62.6967 41.4892C62.6419 44.2344 61.4988 46.8454 59.5189 48.7479C57.9477 50.2577 55.9515 51.223 53.8223 51.5298C52.8996 51.6628 52.1543 50.8779 52.1729 49.9459C52.1915 49.0138 52.9726 48.2937 53.8819 48.0884C55.1123 47.8107 56.2552 47.202 57.1799 46.3136C58.5141 45.0315 59.2845 43.2719 59.3214 41.4218C59.3583 39.5718 58.6588 37.7829 57.3767 36.4486C56.4882 35.524 55.3705 34.8701 54.1522 34.5436C53.2518 34.3022 52.5001 33.5515 52.5186 32.6194Z" fill="#FF3A3A"/>
<path d="M32.8716 58.3456C34.3348 56.6905 36.8627 56.535 38.5178 57.9982L40.9857 60.1801C42.6407 61.6434 42.7962 64.1712 41.333 65.8263L37.2018 70.4991C35.136 72.8357 31.5672 73.0552 29.2307 70.9895C26.8941 68.9237 26.6746 65.355 28.7403 63.0184L32.8716 58.3456Z" fill="#FF7979"/>
</svg>
